<svg width="65" height="108" viewBox="0 0 65 108" fill="none" xmlns="http://www.w3.org/2000/svg">
<path d="M43.25 75.21H64.36C64.4069 80.8497 62.9503 86.4001 60.14 91.29C57.3806 96.1365 53.3531 100.14 48.49 102.87C43.6205 105.659 38.1016 107.115 32.49 107.09C28.8738 107.104 25.2809 106.512 21.86 105.34C15.6264 103.147 10.2303 99.0678 6.42052 93.6686C2.61077 88.2693 0.576468 81.8179 0.599994 75.21V0.209964H11.08C12.9756 0.20069 14.8382 0.705235 16.47 1.66996C18.0948 2.62197 19.448 3.97516 20.4 5.59996C21.3621 7.23602 21.8631 9.10206 21.85 11V21.93H64.36V43H21.85V77.39C22.3877 80.0145 23.8809 82.3459 26.04 83.932C28.1991 85.5182 30.8702 86.246 33.5355 85.9745C36.2008 85.703 38.6704 84.4515 40.4653 82.4625C42.2602 80.4736 43.2525 77.889 43.25 75.21Z" fill="#3772FF"/>
</svg>
