<svg width="19" height="23" viewBox="0 0 19 23" fill="none" xmlns="http://www.w3.org/2000/svg">
<path d="M5.00147 21.6428C3.20193 19.7037 1.87832 17.3718 1.13552 14.8318C0.392725 12.2918 0.251172 9.61352 0.722066 7.00924C1.03603 5.33888 1.64688 3.65828 2.87542 2.48664C4.10396 1.315 6.06621 0.799185 7.55069 1.61558C8.69392 2.2441 9.35936 3.52504 9.5607 4.81282C9.76205 6.1006 9.5607 7.41572 9.38666 8.7035C9.8303 6.42853 10.3422 4.02376 11.9393 2.33974C13.5364 0.655717 16.6009 0.167257 18.082 1.964C19.3447 3.5148 18.8294 5.81369 18.1298 7.689C15.8672 13.7419 12.0826 19.5455 6.34945 22.5139" fill="#FCF0E3"/>
</svg>
