<svg width="25" height="34" viewBox="0 0 25 34" fill="none" xmlns="http://www.w3.org/2000/svg">
<path d="M18.257 33.9947C14.5935 33.059 11.1978 31.2826 8.33878 28.8062C5.47972 26.3298 3.23572 23.2213 1.78439 19.7266C0.869815 17.4756 0.303329 14.9786 0.873234 12.6182C1.44314 10.2579 3.39856 8.11613 5.81809 7.94533C7.67796 7.81212 9.46957 8.83685 10.7118 10.2271C11.9539 11.6174 12.7593 13.3458 13.5135 15.0435C12.285 11.9692 11.0394 8.6729 11.6536 5.41417C12.2679 2.15543 15.5747 -0.819787 18.728 0.204972C21.4581 1.08968 22.6081 4.25277 23.2189 7.0367C25.188 16.0648 25.1266 25.9777 20.5366 33.9913" fill="#FC7071"/>
</svg>