<svg width="16" height="16" viewBox="0 0 16 16" fill="none" xmlns="http://www.w3.org/2000/svg">
<path d="M14.6306 13.7366C12.9525 14.6304 11.0896 15.1207 9.18942 15.1687C7.28921 15.2167 5.40393 14.8212 3.68296 14.0133C2.5841 13.4873 1.52619 12.7528 0.952876 11.6803C0.379559 10.6077 0.365908 9.15251 1.20882 8.26439C1.55289 7.94474 1.96418 7.70642 2.41244 7.56691C2.8607 7.4274 3.3345 7.39025 3.79899 7.45825C4.72608 7.60075 5.62601 7.88415 6.46765 8.29858C4.97293 7.56758 3.3963 6.76827 2.52268 5.34727C1.64905 3.92627 1.87087 1.70252 3.38948 1.01593C4.69992 0.421571 6.20147 1.2038 7.37199 2.04069C11.1566 4.72898 14.4907 8.43519 15.494 12.9715" fill="#36D6AD"/>
</svg>