<svg width="86" height="160" viewBox="0 0 86 160" fill="none" xmlns="http://www.w3.org/2000/svg">
<path d="M85.3502 33.4406C83.876 43.2578 78.3475 52.5353 69.9935 57.9597C67.5023 59.572 64.5538 61.174 63.7928 64.0468C63.3048 65.8674 63.844 67.8043 64.3388 69.6078C72.201 98.7473 70.6323 129.631 59.8581 157.823C59.138 159.681 56.3397 165.273 56.3397 165.273C56.3397 165.273 13.1361 174.154 0.0317535 174.294L0.6119 170.044L1.26028 165.262C2.25335 157.898 3.43071 149.443 4.73091 140.364C12.4093 86.5915 24.135 10.7969 24.8892 8.3955C27.179 1.06505 32.1785 22.1102 32.3798 29.7891C33.7738 27.9475 35.5377 26.4187 37.5578 25.3009C39.5779 24.1831 41.8095 23.5011 44.1089 23.2989C42.348 15.1213 42.6927 9.00353 45.0917 1.27343C45.13 1.14484 45.2052 1.03034 45.308 0.944268C45.4108 0.858192 45.5367 0.80434 45.6699 0.789404C45.8031 0.774467 45.9378 0.799119 46.0571 0.86029C46.1764 0.92146 46.275 1.01643 46.3408 1.13337C51.0194 9.23238 51.5723 16.3101 54.357 25.9872C54.8245 27.6029 54.6641 29.7447 56.2407 30.322C57.2031 30.6635 58.2644 30.2434 59.1994 29.8301L75.9212 22.4518C78.7491 21.2084 81.5793 19.9559 84.4117 18.6943C85.8108 23.4797 86.1313 28.5163 85.3502 33.4406Z" fill="#FFF3DB"/>
</svg>
