<svg width="52" height="133" viewBox="0 0 52 133" fill="none" xmlns="http://www.w3.org/2000/svg">
<path d="M1.64489 131.762C13.3774 134.153 26.1133 131.455 35.7709 124.353C40.5486 120.835 44.6437 116.315 47.3158 110.98C49.9326 105.672 51.305 99.8357 51.3287 93.9163C51.3523 87.997 50.0266 82.1504 47.4523 76.8213C46.1521 74.1814 44.5114 71.7238 42.5722 69.5113C40.3711 67.0006 37.7434 64.9067 35.0372 62.9699C29.6419 59.1066 23.3832 55.7522 19.4348 50.3585C17.5852 47.8342 16.2508 45.1767 15.7731 42.0853C15.3764 39.2068 16.0663 36.2837 17.708 33.8872C21.1889 28.6336 27.5636 26.0103 32.5494 22.2016C35.1976 20.176 37.7025 17.7609 39.1221 14.7072C40.4632 11.8105 41.0639 8.48007 40.2244 5.35114C39.8136 3.86061 39.069 2.48332 38.0471 1.32382C37.4465 0.640652 36.2521 0.705553 35.6344 1.32382C35.3227 1.64835 35.1485 2.08111 35.1485 2.53134C35.1485 2.98158 35.3227 3.41429 35.6344 3.73882C35.822 3.94098 35.9868 4.16324 36.1258 4.40152C36.3143 4.70159 36.482 5.01432 36.6275 5.33746C36.5319 5.12227 36.6514 5.3887 36.6616 5.41944C36.723 5.5834 36.781 5.76102 36.8356 5.91815C36.9549 6.31407 37.0506 6.71671 37.1223 7.12396C37.2213 7.67391 37.1223 6.82336 37.153 7.38015C37.153 7.4997 37.1735 7.61926 37.1803 7.72173C37.1991 8.08357 37.1991 8.44616 37.1803 8.808C37.1693 9.45518 37.0799 10.0986 36.9142 10.7243C36.2316 13.5663 34.614 15.8686 32.3822 17.8976C27.6933 22.1845 21.4619 24.6234 17.005 29.3202C14.7732 31.6738 12.9918 34.5807 12.4663 37.8257C11.9908 41.0438 12.4418 44.3308 13.7665 47.3014C15.0833 50.3042 16.9438 53.0374 19.2539 55.3628C21.6427 57.829 24.4854 59.8581 27.3145 61.7949C30.1435 63.7317 32.9521 65.4977 35.5866 67.6019C36.8517 68.6041 38.0509 69.6869 39.1767 70.8435C39.6317 71.3172 40.0719 71.8056 40.4974 72.3089C41.0195 72.9237 41.2379 73.2073 41.6611 73.7914C42.4949 74.9461 43.2519 76.1545 43.927 77.4088C44.5343 78.5339 45.0722 79.6952 45.5378 80.8862C46.5484 83.5071 47.2471 86.2381 47.6195 89.0227C47.5854 88.7699 47.6195 89.0671 47.6195 89.1047C47.64 89.2823 47.6638 89.4463 47.6843 89.641C47.7219 89.9826 47.756 90.3549 47.7833 90.7136C47.8424 91.4309 47.8788 92.1505 47.8925 92.8724C47.926 94.2538 47.8827 95.6359 47.7628 97.0124C47.7321 97.354 47.6945 97.7298 47.6536 98.0884C47.6331 98.2661 47.6126 98.43 47.5888 98.6247C47.6263 98.3514 47.5717 98.7306 47.5649 98.7955C47.4557 99.5379 47.3237 100.276 47.169 101.009C46.8877 102.359 46.5299 103.692 46.0975 105.002C45.8893 105.631 45.6641 106.249 45.4149 106.864C45.1658 107.479 44.9952 107.889 44.6573 108.596C42.8688 112.371 40.3801 115.772 37.3236 118.618C35.3055 120.536 33.0685 122.21 30.6588 123.605C28.2747 125.033 25.7425 126.198 23.1068 127.079C17.7662 128.905 12.099 129.574 6.48055 129.043C5.16523 128.926 3.85812 128.73 2.5663 128.455C2.13044 128.346 1.66915 128.409 1.27829 128.631C0.88744 128.853 0.597082 129.217 0.46755 129.648C0.235493 130.491 0.750793 131.564 1.65855 131.748L1.64489 131.762Z" fill="white"/>
</svg>
