<svg width="86" height="108" viewBox="0 0 86 86" fill="none" xmlns="http://www.w3.org/2000/svg">
<path d="M64.69 0.199951V6.19995C58.1975 2.40019 50.8127 0.391806 43.29 0.37995C37.688 0.29169 32.1268 1.34667 26.9463 3.48042C21.7658 5.61418 17.0748 8.78188 13.16 12.79C9.11746 16.6864 5.91981 21.3729 3.76594 26.5581C1.61206 31.7432 0.548031 37.316 0.640015 42.93C0.551689 48.5523 1.61715 54.133 3.77056 59.3273C5.92397 64.5217 9.1196 69.2193 13.16 73.1299C17.0597 77.1655 21.7454 80.3586 26.9277 82.512C32.11 84.6655 37.6788 85.7334 43.29 85.6499C51.1666 85.6471 58.8837 83.4293 65.56 79.25C66.4438 81.0961 67.7995 82.6761 69.49 83.83C71.196 85.0297 73.2344 85.6661 75.32 85.6499H86V0.199951H64.69ZM50.93 30.27C51.45 26.66 54.33 24.2699 57.36 25.0299C60.39 25.7899 62.42 29.23 61.9 32.83C61.38 36.43 58.5 38.8299 55.47 38.07C52.44 37.31 50.41 33.8699 50.93 30.27ZM38.62 18.0999C41.34 16.2599 45.06 17.4799 46.93 20.82C48.8 24.16 48.12 28.38 45.4 30.22C42.68 32.06 38.97 30.85 37.1 27.5C35.23 24.15 35.91 19.9999 38.62 18.0999ZM24.71 24.0999C27.43 22.2599 31.15 23.4699 33.02 26.82C34.89 30.17 34.21 34.38 31.49 36.22C28.77 38.06 25.06 36.8499 23.19 33.5C21.32 30.15 22 26 24.71 24.1399V24.0999ZM28.44 49.7699C26.89 52.4699 23.21 52.9699 20.22 50.8899C17.23 48.81 16.07 44.8899 17.62 42.2399C19.17 39.5899 22.85 39.04 25.84 41.12C28.83 43.2 30 47.1099 28.44 49.8099V49.7699ZM61.82 56.7699C58.06 59.6499 52.54 56.3299 47.98 58.2699C43.36 60.0399 41.68 66.27 36.98 66.8C32.28 67.33 28.68 62.2199 32.98 52.9199C35.78 46.66 35 41.2999 40.17 39.0599C45.44 37.0599 48.61 41.4899 55.1 44.0599C64.63 47.7599 65.58 53.9399 61.82 56.8099V56.7699Z" fill="#FCF0E3"/>
</svg>
