<svg width="86" height="108" viewBox="0 0 86 108" fill="none" xmlns="http://www.w3.org/2000/svg">
<path d="M73.83 0.800049H85.49V97C85.5038 98.4074 85.2338 99.8032 84.696 101.104C84.1582 102.405 83.3637 103.583 82.36 104.57C81.4017 105.594 80.2409 106.407 78.9515 106.958C77.662 107.509 76.2721 107.785 74.87 107.77H64.24V101.65C57.7806 105.549 50.3847 107.622 42.84 107.65C37.2289 107.732 31.6604 106.664 26.4783 104.51C21.2962 102.357 16.6104 99.1647 12.71 95.13C8.73624 91.1714 5.58438 86.4662 3.43572 81.2851C1.28706 76.1039 0.183994 70.5491 0.189966 64.94C0.19259 59.3427 1.29799 53.8008 3.44302 48.6308C5.58805 43.4608 8.73067 38.7641 12.6914 34.809C16.652 30.8539 21.3532 27.7179 26.5262 25.5801C31.6992 23.4424 37.2427 22.3448 42.84 22.35C50.3625 22.3633 57.7469 24.3716 64.24 28.17V10.4C64.24 7.8557 65.25 5.41542 67.0482 3.61536C68.8464 1.81529 71.2856 0.802699 73.83 0.800049ZM64.24 65.58V64.27C64.1691 60.5889 63.1124 56.994 61.18 53.8601C59.2846 50.7517 56.6319 48.1747 53.47 46.37C50.2101 44.5422 46.5331 43.5882 42.7958 43.6004C39.0584 43.6127 35.3878 44.5909 32.14 46.44C28.91 48.315 26.2249 51 24.35 54.23C21.971 58.3009 21.0093 63.0458 21.6155 67.7217C22.2217 72.3976 24.3616 76.7404 27.7 80.07C31.6588 84.0832 37.0495 86.3597 42.6865 86.3991C48.3235 86.4385 53.7454 84.2375 57.76 80.28C59.755 78.3773 61.3544 76.0992 62.4665 73.5765C63.5785 71.0538 64.1812 68.3363 64.24 65.58Z" fill="#FCF0E3"/>
</svg>