<svg width="85" height="87" viewBox="0 0 85 87" fill="none" xmlns="http://www.w3.org/2000/svg">
<path d="M61.5 54.85C59.3288 58.5658 56.0438 61.5045 52.11 63.25C48.1878 65.0528 43.803 65.5943 39.56 64.8C35.4163 64.0804 31.5707 62.1732 28.49 59.31L84.56 34.2L83.9 31.3C83.8257 30.7611 83.695 30.2316 83.51 29.72C83.172 28.5001 82.7441 27.3068 82.23 26.15C80.5041 22.2119 78.1389 18.5864 75.23 15.42C69.3692 8.51608 61.3747 3.76229 52.51 1.91003C43.5794 -0.131145 34.2245 0.835628 25.9 4.66003C20.3426 7.12298 15.3775 10.7484 11.3393 15.292C7.30112 19.8356 4.28359 25.1919 2.49001 31C0.749677 36.7249 0.218441 42.749 0.930009 48.69C1.77451 55.7468 4.40397 62.4719 8.57002 68.23C12.3938 73.6791 17.447 78.1513 23.3204 81.2845C29.1938 84.4177 35.7224 86.124 42.3778 86.2652C49.0332 86.4064 55.6283 84.9785 61.6293 82.0972C67.6303 79.2159 72.8686 74.962 76.92 69.68C80.2832 65.2528 82.7586 60.217 84.21 54.85H61.5ZM26.38 30C28.4875 27.2957 31.2375 25.161 34.38 23.79C37.5106 22.3599 40.9446 21.7212 44.38 21.93C47.757 22.14 51.0441 23.1036 54 24.75L22.12 39C22.8552 35.7213 24.3103 32.6471 26.38 30Z" fill="#FCF0E3"/>
</svg>
