<svg width="87" height="86" viewBox="0 0 87 86" fill="none" xmlns="http://www.w3.org/2000/svg">
<path d="M13 12.8699C21.0098 4.86645 31.8653 0.364032 43.1884 0.349037C54.5115 0.334042 65.379 4.8077 73.41 12.7899C77.4618 16.6829 80.6702 21.3672 82.836 26.552C85.0018 31.7369 86.0787 37.3115 86 42.9299C86.0859 48.5519 85.0194 54.132 82.8661 59.3259C80.7128 64.5199 77.5185 69.2178 73.48 73.1299C69.5145 77.0985 64.8058 80.2466 59.6231 82.3946C54.4403 84.5425 48.8851 85.648 43.2749 85.648C37.6648 85.648 32.1096 84.5425 26.9268 82.3946C21.7441 80.2466 17.0354 77.0985 13.07 73.1299C9.02954 69.2193 5.83391 64.5217 3.68049 59.3273C1.52708 54.133 0.46163 48.5523 0.549956 42.9299C0.444391 37.3323 1.49568 31.7732 3.63798 26.6007C5.78029 21.4282 8.96748 16.7537 13 12.8699ZM28.13 58.1399C30.1053 60.1291 32.4558 61.7064 35.0451 62.7807C37.6345 63.855 40.4112 64.4048 43.2146 64.3983C46.0179 64.3918 48.7921 63.8291 51.3764 62.7428C53.9607 61.6565 56.3038 60.0682 58.2699 58.0699C60.2844 56.1019 61.8781 53.7451 62.9542 51.1426C64.0303 48.54 64.5664 45.746 64.53 42.9299C64.4092 37.3542 62.1094 32.0474 58.1234 28.1468C54.1373 24.2461 48.782 22.0618 43.2049 22.0618C37.6279 22.0618 32.2726 24.2461 28.2865 28.1468C24.3005 32.0474 22.0007 37.3542 21.88 42.9299C21.8501 45.7581 22.3919 48.5632 23.4727 51.1769C24.5536 53.7905 26.1513 56.1589 28.17 58.1399H28.13Z" fill="#FCF0E3"/>
</svg>