<svg width="87" height="108" viewBox="0 0 87 108" fill="none" xmlns="http://www.w3.org/2000/svg">
<path d="M85.15 34.27C86.5143 40.6962 86.3396 47.3541 84.64 53.6999C83.0943 59.7534 80.2368 65.3932 76.27 70.22C72.3009 74.9496 67.3631 78.7723 61.79 81.4299C55.5361 84.4732 48.6214 85.9071 41.673 85.6015C34.7247 85.2959 27.9626 83.2605 22 79.6799V96.42C22.0161 97.8277 21.7472 99.2241 21.2092 100.525C20.6713 101.826 19.8756 103.005 18.87 103.99C17.8901 105.027 16.7044 105.849 15.3888 106.401C14.0732 106.954 12.6567 107.226 11.23 107.2H0.719971V0.199951H22V6.19995C27.1188 3.07169 32.8646 1.111 38.8279 0.457628C44.7912 -0.195745 50.8252 0.47428 56.5 2.41995C63.7062 4.6977 70.1681 8.8698 75.21 14.5C80.296 20.0383 83.7381 26.8843 85.15 34.27ZM28.23 58.1399C31.2345 61.1207 35.0541 63.1456 39.2074 63.9594C43.3607 64.7732 47.6619 64.3395 51.5692 62.7131C55.4765 61.0867 58.815 58.3402 61.1641 54.8197C63.5132 51.2992 64.7679 47.1622 64.77 42.93C64.77 37.2543 62.5153 31.8111 58.502 27.7979C54.4888 23.7846 49.0456 21.5299 43.37 21.5299C37.6943 21.5299 32.2512 23.7846 28.2379 27.7979C24.2246 31.8111 21.97 37.2543 21.97 42.93C21.9362 45.756 22.4733 48.5598 23.5489 51.1733C24.6246 53.7869 26.2167 56.1564 28.23 58.1399Z" fill="#FCF0E3"/>
</svg>