<svg width="41" height="44" viewBox="0 0 41 44" fill="none" xmlns="http://www.w3.org/2000/svg">
<path d="M30.5399 0.666016V3.65663C27.4445 1.76269 23.9236 0.761643 20.337 0.755733C17.6661 0.711741 15.0147 1.23758 12.5447 2.30112C10.0748 3.36466 7.83829 4.94356 5.97182 6.94133C4.04444 8.88347 2.51988 11.2194 1.49297 13.8039C0.466066 16.3883 -0.0412361 19.166 0.00261915 21.9642C-0.0394921 24.7666 0.468489 27.5482 1.49518 30.1372C2.52187 32.7263 4.04546 35.0677 5.97182 37.017C7.83107 39.0284 10.0651 40.62 12.5359 41.6933C15.0066 42.7667 17.6617 43.299 20.337 43.2574C24.0923 43.2559 27.7716 42.1505 30.9547 40.0674C31.3761 40.9876 32.0224 41.7751 32.8284 42.3502C33.6418 42.9482 34.6137 43.2654 35.608 43.2574H40.7V0.666016H30.5399ZM23.9795 15.654C24.2274 13.8546 25.6006 12.6634 27.0452 13.0422C28.4898 13.421 29.4576 15.1356 29.2097 16.93C28.9618 18.7244 27.5887 19.9206 26.1441 19.5418C24.6995 19.163 23.7316 17.4484 23.9795 15.654ZM18.1105 9.58802C19.4073 8.6709 21.1809 9.27899 22.0724 10.9438C22.964 12.6085 22.6398 14.7119 21.343 15.6291C20.0462 16.5462 18.2773 15.9431 17.3858 14.2733C16.4942 12.6036 16.8184 10.535 18.1105 9.58802ZM11.4785 12.5786C12.7754 11.6615 14.549 12.2646 15.4405 13.9344C16.3321 15.6041 16.0079 17.7026 14.7111 18.6197C13.4142 19.5368 11.6454 18.9337 10.7538 17.2639C9.86228 15.5942 10.1865 13.5257 11.4785 12.5986V12.5786ZM13.2569 25.3735C12.5179 26.7193 10.7634 26.9685 9.33783 25.9317C7.91228 24.895 7.35922 22.9411 8.09822 21.6203C8.83722 20.2994 10.5917 20.0253 12.0173 21.062C13.4428 22.0988 14.0007 24.0477 13.2569 25.3934V25.3735ZM29.1716 28.8625C27.3789 30.298 24.7471 28.6432 22.573 29.6102C20.3704 30.4924 19.5694 33.5977 17.3285 33.8619C15.0877 34.126 13.3713 31.579 15.4215 26.9436C16.7564 23.8234 16.3845 21.1517 18.8495 20.0352C21.362 19.0384 22.8734 21.2464 25.9677 22.5274C30.5113 24.3716 30.9642 27.452 29.1716 28.8825V28.8625Z" fill="#3772FF"/>
</svg>
